<svg xmlns="http://www.w3.org/2000/svg" viewBox="0 0 22 16" shape-rendering="crispEdges"><path fill="#2020a0" d="M0 0h1v1H0zM3 0h1v1H3zM2 2h1v1H2zM5 2h1v1H5zM4 3h1v1H4zM7 4h1v1H7zM6 5h1v1H6zM9 6h2v1H9zM8 7h1v1H8zM11 8h1v1H11zM10 9h1v1H10zM13 10h1v1H13zM12 11h1v1H12zM15 12h2v1H15zM17 14h2v1H17zM16 15h1v1H16zM19 15h1v1H19z"/><path fill="#a0a0e0" d="M1 0h1v1H1zM7 6h1v1H7zM14 11h1v1H14zM17 15h1v1H17z"/><path fill="#4040c0" d="M2 0h1v1H2zM2 1h1v1H2zM4 1h1v1H4z"/><path fill="#202080" d="M4 0h1v1H4zM5 1h1v1H5zM6 2h1v1H6zM7 3h1v1H7zM8 4h1v1H8z"/><path fill="#c0a020" d="M5 0h16v1H5zM8 3h1v1H8zM9 4h1v1H9zM10 5h1v1H10z"/><path fill="#0000a0" d="M21 0h1v1H21zM0 1h2v1H0zM21 1h1v1H21zM0 2h2v1H0zM21 2h1v1H21zM0 3h4v1H0zM21 3h1v1H21zM0 4h5v1H0zM21 4h1v1H21zM0 5h6v1H0zM21 5h1v1H21zM0 6h7v1H0zM21 6h1v1H21zM0 7h8v1H0zM11 7h1v1H11zM21 7h1v1H21zM0 8h9v1H0zM12 8h1v1H12zM21 8h1v1H21zM0 9h10v1H0zM13 9h1v1H13zM21 9h1v1H21zM0 10h11v1H0zM14 10h1v1H14zM21 10h1v1H21zM0 11h12v1H0zM15 11h1v1H15zM21 11h1v1H21zM0 12h13v1H0zM21 12h1v1H21zM0 13h15v1H0zM17 13h1v1H17zM21 13h1v1H21zM0 14h15v1H0zM21 14h1v1H21zM0 15h16v1H0zM21 15h1v1H21z"/><path fill="#c0c0e0" d="M3 1h1v1H3zM3 2h1v1H3zM5 3h1v1H5zM5 4h1v1H5zM7 5h1v1H7zM9 7h1v1H9zM11 9h1v1H11zM13 11h1v1H13zM15 13h2v1H15zM18 15h1v1H18z"/><path fill="#e0c000" d="M6 1h1v1H6z"/><path fill="#ffe000" d="M7 1h1v1H7zM8 2h1v1H8zM9 3h1v1H9zM10 4h1v1H10zM11 5h1v1H11zM12 6h1v1H12zM13 7h1v1H13zM14 8h1v1H14zM15 9h1v1H15zM16 10h1v1H16zM17 11h1v1H17z"/><path fill="#ffc000" d="M8 1h13v1H8zM9 2h12v1H9zM10 3h11v1H10zM11 4h10v1H11zM12 5h9v1H12zM13 6h8v1H13zM14 7h7v1H14zM15 8h6v1H15zM16 9h5v1H16zM17 10h4v1H17zM18 11h3v1H18zM18 12h3v1H18zM19 13h2v1H19zM20 14h1v1H20z"/><path fill="#6060c0" d="M4 2h1v1H4zM6 3h1v1H6zM6 4h1v1H6zM8 5h1v1H8zM12 10h1v1H12zM14 12h1v1H14zM15 14h2v1H15z"/><path fill="#e0c020" d="M7 2h1v1H7z"/><path fill="#200080" d="M9 5h1v1H9z"/><path fill="#8080c0" d="M8 6h1v1H8zM10 7h1v1H10zM10 8h1v1H10zM11 10h1v1H11zM13 12h1v1H13z"/><path fill="#c0a040" d="M11 6h1v1H11z"/><path fill="#a08040" d="M12 7h1v1H12zM13 8h1v1H13z"/><path fill="#8080e0" d="M9 8h1v1H9zM12 9h1v1H12z"/><path fill="#806040" d="M14 9h1v1H14zM15 10h1v1H15z"/><path fill="#806060" d="M16 11h1v1H16z"/><path fill="#604060" d="M17 12h1v1H17zM18 13h1v1H18zM20 15h1v1H20z"/><path fill="#404060" d="M19 14h1v1H19z"/></svg>