<svg xmlns="http://www.w3.org/2000/svg" viewBox="0 0 22 16" shape-rendering="crispEdges"><path fill="#0040a0" d="M0 0h7v1H0zM0 1h7v1H0zM0 2h7v1H0zM0 3h7v1H0zM0 4h6v1H0zM0 5h6v1H0zM0 6h5v1H0zM0 7h5v1H0zM0 8h5v1H0zM0 9h5v1H0zM0 10h6v1H0zM0 11h6v1H0zM0 12h7v1H0zM0 13h7v1H0zM0 14h7v1H0zM0 15h7v1H0z"/><path fill="#c0c020" d="M7 0h1v1H7zM7 15h1v1H7z"/><path fill="#ffe000" d="M8 0h6v1H8zM8 1h6v1H8zM8 2h6v1H8zM9 3h1v1H9zM12 3h2v1H12zM9 4h1v1H9zM12 4h1v1H12zM9 12h1v1H9zM12 12h1v1H12zM8 13h6v1H8zM8 14h6v1H8zM8 15h6v1H8z"/><path fill="#ffa000" d="M14 0h1v1H14zM9 5h1v1H9zM12 5h1v1H12zM10 7h2v1H10zM14 15h1v1H14z"/><path fill="#e02000" d="M15 0h7v1H15zM15 15h7v1H15z"/><path fill="#e0c020" d="M7 1h1v1H7zM7 2h1v1H7zM7 12h1v1H7zM7 13h1v1H7zM7 14h1v1H7z"/><path fill="#ff8000" d="M14 1h1v1H14zM12 7h1v1H12zM14 12h1v1H14z"/><path fill="#e02020" d="M15 1h7v1H15zM15 2h7v1H15zM15 3h7v1H15zM16 4h6v1H16zM16 5h6v1H16zM16 6h6v1H16zM16 7h6v1H16zM16 8h6v1H16zM16 9h6v1H16zM16 10h6v1H16zM16 11h6v1H16zM15 12h7v1H15zM15 13h7v1H15zM15 14h7v1H15z"/><path fill="#e08000" d="M14 2h1v1H14zM14 13h1v1H14zM14 14h1v1H14z"/><path fill="#c0a020" d="M7 3h1v1H7zM10 3h2v1H10zM8 4h1v1H8zM10 4h2v1H10zM13 4h1v1H13zM10 12h2v1H10z"/><path fill="#ffc000" d="M8 3h1v1H8zM8 12h1v1H8zM13 12h1v1H13z"/><path fill="#c08020" d="M14 3h1v1H14zM13 5h1v1H13zM14 11h1v1H14z"/><path fill="#004080" d="M6 4h1v1H6zM5 7h1v1H5zM5 8h1v1H5z"/><path fill="#a06040" d="M7 4h1v1H7zM14 4h1v1H14zM7 7h1v1H7zM14 7h1v1H14zM14 8h1v1H14z"/><path fill="#c02020" d="M15 4h1v1H15z"/><path fill="#204080" d="M6 5h1v1H6zM6 6h1v1H6zM6 10h1v1H6zM6 11h1v1H6z"/><path fill="#806020" d="M7 5h1v1H7zM14 5h1v1H14z"/><path fill="#a08020" d="M8 5h1v1H8zM14 9h1v1H14zM14 10h1v1H14zM7 11h1v1H7z"/><path fill="#e08020" d="M10 5h2v1H10z"/><path fill="#c04020" d="M15 5h1v1H15zM8 6h1v1H8zM13 6h1v1H13zM15 6h1v1H15zM8 7h1v1H8zM15 9h1v1H15zM15 10h1v1H15zM15 11h1v1H15z"/><path fill="#0020a0" d="M5 6h1v1H5zM5 9h1v1H5z"/><path fill="#806040" d="M7 6h1v1H7zM14 6h1v1H14z"/><path fill="#ff2000" d="M9 6h2v1H9z"/><path fill="#ff4000" d="M11 6h2v1H11z"/><path fill="#206060" d="M6 7h1v1H6z"/><path fill="#ff6000" d="M9 7h1v1H9zM13 11h1v1H13z"/><path fill="#e04020" d="M13 7h1v1H13z"/><path fill="#e06020" d="M15 7h1v1H15zM15 8h1v1H15z"/><path fill="#006040" d="M6 8h1v1H6zM6 9h1v1H6z"/><path fill="#808020" d="M7 8h1v1H7z"/><path fill="#a06080" d="M8 8h1v1H8z"/><path fill="#a080a0" d="M9 8h1v1H9z"/><path fill="#e0e040" d="M10 8h2v1H10z"/><path fill="#a060a0" d="M12 8h1v1H12z"/><path fill="#806080" d="M13 8h1v1H13z"/><path fill="#608020" d="M7 9h1v1H7z"/><path fill="#808060" d="M8 9h1v1H8z"/><path fill="#6060e0" d="M9 9h1v1H9zM12 9h1v1H12z"/><path fill="#c0c060" d="M10 9h2v1H10z"/><path fill="#808080" d="M13 9h1v1H13z"/><path fill="#408020" d="M7 10h1v1H7z"/><path fill="#c08000" d="M8 10h1v1H8z"/><path fill="#c08040" d="M9 10h1v1H9zM12 10h1v1H12z"/><path fill="#a0a060" d="M10 10h2v1H10z"/><path fill="#e0a000" d="M13 10h1v1H13zM9 11h1v1H9z"/><path fill="#e04000" d="M8 11h1v1H8z"/><path fill="#a08040" d="M10 11h2v1H10z"/><path fill="#c0a000" d="M12 11h1v1H12z"/></svg>