<svg xmlns="http://www.w3.org/2000/svg" viewBox="0 0 22 16" shape-rendering="crispEdges"><path fill="#c00040" d="M0 0h22v1H0zM0 15h22v1H0z"/><path fill="#e02040" d="M0 1h22v1H0zM0 2h4v1H0zM18 2h4v1H18zM0 3h4v1H0zM18 3h4v1H18zM0 4h4v1H0zM18 4h4v1H18zM0 5h4v1H0zM18 5h4v1H18zM0 6h4v1H0zM18 6h4v1H18zM0 7h4v1H0zM18 7h4v1H18zM0 8h4v1H0zM18 8h4v1H18zM0 9h4v1H0zM18 9h4v1H18zM0 10h4v1H0zM18 10h4v1H18zM0 11h4v1H0zM18 11h4v1H18zM0 12h4v1H0zM18 12h4v1H18zM0 13h4v1H0zM18 13h4v1H18zM0 14h22v1H0z"/><path fill="#e00040" d="M4 2h14v1H4zM4 13h14v1H4z"/><path fill="#c02040" d="M4 3h14v1H4zM4 12h14v1H4z"/><path fill="#406040" d="M4 4h1v1H4zM11 4h2v1H11zM17 4h1v1H17zM4 11h1v1H4zM11 11h2v1H11zM17 11h1v1H17z"/><path fill="#206040" d="M5 4h5v1H5zM13 4h4v1H13zM5 11h5v1H5zM13 11h4v1H13z"/><path fill="#206020" d="M10 4h1v1H10zM10 11h1v1H10z"/><path fill="#208040" d="M4 5h1v1H4zM12 5h1v1H12zM17 5h1v1H17zM4 6h1v1H4zM17 6h1v1H17zM4 7h1v1H4zM17 7h1v1H17zM4 8h1v1H4zM17 8h1v1H17zM4 9h1v1H4zM17 9h1v1H17zM4 10h1v1H4zM12 10h1v1H12zM17 10h1v1H17z"/><path fill="#008040" d="M5 5h5v1H5zM13 5h4v1H13zM5 6h4v1H5zM12 6h5v1H12zM5 7h4v1H5zM11 7h6v1H11zM5 8h4v1H5zM11 8h6v1H11zM5 9h4v1H5zM12 9h5v1H12zM5 10h5v1H5zM13 10h4v1H13z"/><path fill="#40a060" d="M10 5h2v1H10zM9 6h1v1H9zM11 6h1v1H11zM9 9h1v1H9zM11 9h1v1H11zM10 10h2v1H10z"/><path fill="#c0e0c0" d="M10 6h1v1H10zM10 9h1v1H10z"/><path fill="#a0c0c0" d="M9 7h1v1H9zM9 8h1v1H9z"/><path fill="#60c080" d="M10 7h1v1H10zM10 8h1v1H10z"/></svg>