<svg xmlns="http://www.w3.org/2000/svg" viewBox="0 0 22 16" shape-rendering="crispEdges"><path fill="#208080" d="M0 0h5v1H0zM0 15h5v1H0z"/><path fill="#c0e020" d="M5 0h1v1H5zM5 1h1v1H5zM5 2h1v1H5zM5 3h1v1H5zM5 4h1v1H5zM5 5h1v1H5zM5 6h1v1H5zM5 7h1v1H5zM5 8h1v1H5zM5 9h1v1H5zM5 10h1v1H5zM5 11h1v1H5zM5 12h1v1H5zM5 13h1v1H5zM5 14h1v1H5zM5 15h1v1H5z"/><path fill="#ffe000" d="M6 0h10v1H6zM13 9h1v1H13zM11 12h1v1H11zM6 15h10v1H6z"/><path fill="#e0e000" d="M16 0h1v1H16zM16 1h1v1H16zM16 2h1v1H16zM16 3h1v1H16zM8 4h2v1H8zM12 4h2v1H12zM16 4h1v1H16zM7 5h1v1H7zM11 5h1v1H11zM14 5h1v1H14zM16 5h1v1H16zM10 6h1v1H10zM16 6h1v1H16zM16 7h1v1H16zM16 8h1v1H16zM8 9h1v1H8zM16 9h1v1H16zM12 10h1v1H12zM16 10h1v1H16zM16 11h1v1H16zM10 12h1v1H10zM16 12h1v1H16zM16 13h1v1H16zM16 14h1v1H16zM16 15h1v1H16z"/><path fill="#40a000" d="M17 0h5v1H17zM8 5h1v1H8zM9 7h1v1H9zM17 15h5v1H17z"/><path fill="#0060a0" d="M0 1h5v1H0zM0 2h5v1H0zM0 3h5v1H0zM0 4h5v1H0zM0 5h5v1H0zM0 6h5v1H0zM0 7h5v1H0zM0 8h5v1H0zM0 9h5v1H0zM0 10h5v1H0zM0 11h5v1H0zM0 12h5v1H0zM0 13h5v1H0zM0 14h5v1H0z"/><path fill="#ffff00" d="M6 1h10v1H6zM6 2h10v1H6zM6 3h10v1H6zM6 4h2v1H6zM10 4h2v1H10zM14 4h2v1H14zM6 5h1v1H6zM10 5h1v1H10zM15 5h1v1H15zM6 6h1v1H6zM15 6h1v1H15zM6 7h1v1H6zM15 7h1v1H15zM6 8h2v1H6zM14 8h2v1H14zM6 9h2v1H6zM14 9h2v1H14zM6 10h3v1H6zM13 10h3v1H13zM6 11h4v1H6zM12 11h4v1H12zM6 12h4v1H6zM12 12h4v1H12zM6 13h10v1H6zM6 14h10v1H6z"/><path fill="#20a000" d="M17 1h5v1H17zM17 2h5v1H17zM17 3h5v1H17zM17 4h5v1H17zM17 5h5v1H17zM8 6h2v1H8zM12 6h2v1H12zM17 6h5v1H17zM8 7h1v1H8zM12 7h2v1H12zM17 7h5v1H17zM17 8h5v1H17zM10 9h2v1H10zM17 9h5v1H17zM10 10h2v1H10zM17 10h5v1H17zM17 11h5v1H17zM17 12h5v1H17zM17 13h5v1H17zM17 14h5v1H17z"/><path fill="#80c000" d="M9 5h1v1H9zM8 8h1v1H8zM11 8h1v1H11zM10 11h1v1H10z"/><path fill="#60c000" d="M12 5h2v1H12zM10 8h1v1H10z"/><path fill="#a0c000" d="M7 6h1v1H7zM13 8h1v1H13zM11 11h1v1H11z"/><path fill="#c0e000" d="M11 6h1v1H11zM14 6h1v1H14zM7 7h1v1H7zM10 7h2v1H10zM14 7h1v1H14zM9 8h1v1H9zM12 9h1v1H12zM9 10h1v1H9z"/><path fill="#a0e000" d="M12 8h1v1H12zM9 9h1v1H9z"/></svg>